# xmcd
#
# Track frame offsets:
#	150
#	12376
#	21851
#	31982
#	42798
#	52711
#	65984
#	78827
#	89213
#	106206
#	116862
#
# Disc length: 1740 seconds
#
# Revision: 0
# Processed by: cddbd v1.5.2PL0 Copyright (c) Steve Scherf et al.
# Submitted via: audiograbber 1.83.01
#
DISCID=8c06ca0b
DTITLE=Yuppicide - Revenge Regret Repeat
DYEAR=2016
DGENRE=Punk Rock
TTITLE0=Spread the Infection
TTITLE1=Sabotage
TTITLE2=You're Gonna Get It
TTITLE3=Hurts to Know
TTITLE4=Bad Blood
TTITLE5=Political Game
TTITLE6=Obsolete
TTITLE7=Insolence
TTITLE8=Ghosts
TTITLE9=King of the Dicks
TTITLE10=Destroyer
EXTD=
EXTT0=
EXTT1=
EXTT2=
EXTT3=
EXTT4=
EXTT5=
EXTT6=
EXTT7=
EXTT8=
EXTT9=
EXTT10=
PLAYORDER=
